<svg id="Layer_1" height="512" viewBox="0 0 512 512" width="512" xmlns="http://www.w3.org/2000/svg" xmlns:xlink="http://www.w3.org/1999/xlink" data-name="Layer 1"><linearGradient id="linear-gradient" gradientUnits="userSpaceOnUse" x1="256.012" x2="256.012" y1="472" y2="74.583"><stop offset=".322" stop-color="#a163f5"/><stop offset=".466" stop-color="#b074ee"/><stop offset=".752" stop-color="#d8a1dd"/><stop offset=".898" stop-color="#efbad3"/></linearGradient><linearGradient id="linear-gradient-2" x1="121.553" x2="121.553" xlink:href="#linear-gradient" y1="472" y2="74.583"/><linearGradient id="linear-gradient-3" x1="165.782" x2="165.782" xlink:href="#linear-gradient" y1="472" y2="74.583"/><path d="m414.087 217.961c-.017-6.44-.1-32.775-.28-35.8a182.147 182.147 0 0 0 -183.956-172.149q-2.356.025-4.7.11c-57.451 2.066-109.137 33.186-138.251 83.245a169.491 169.491 0 0 0 -4 164.258c1.5 3.75 18.508 46.447 20.167 64.284 6.1 65.521.047 172.672-.015 173.746a6.019 6.019 0 0 0 3.576 5.846 6.186 6.186 0 0 0 2.536.5h156.836a6 6 0 0 0 6-6v-58.689a11.533 11.533 0 0 1 1.266-5.364 19.651 19.651 0 0 1 17.486-10.948h.082c31.039 0 49.266.188 51.323.252a45.5 45.5 0 0 0 46.843-45.184v-52.068h45.364a14.027 14.027 0 0 0 11.727-6.044 13.7 13.7 0 0 0 1.408-12.537zm22 93.369a1.756 1.756 0 0 1 -1.508.67h-51.936a5.642 5.642 0 0 0 -5.643 5.643v58.425a33.54 33.54 0 0 1 -34.381 33.19c-2.769-.086-29.7-.258-51.734-.258h.115v-.048c-32 .111-59.545-24.927-62.17-56.965l-.647-6.591a96.872 96.872 0 0 1 -.434-10.623c.191-10.7 1.514-21.914 3.679-27.966a82.87 82.87 0 0 1 12.864-23.34l7.248.452a90.115 90.115 0 0 0 12.011.82c18.113 0 34.52-5.791 47.98-17.038 21.8-18.216 35.237-50.183 36.882-87.727a6.243 6.243 0 0 0 -1.288-4.195 6.01 6.01 0 0 0 -6.692-1.92l-47.546 16.76a57.635 57.635 0 0 0 17.353-23.631l23-59.66a6.166 6.166 0 0 0 -.675-5.671 6.079 6.079 0 0 0 -4.922-2.657h-.081c-37.662 1-70.086 13.105-88.962 34.4-14.159 15.975-20.366 36.587-17.957 59.539l.373 11.27c0 .1.017.216.026.318-12.666 30.689-12.471 62.789.737 93.942-.238.577-.477 1.156-.7 1.738a225.463 225.463 0 0 0 -13.134-38.707c0-.07.016-.138.018-.209l.415-13.846c1.817-60.526-37.9-111.573-88.543-113.793a6 6 0 0 0 -5.667 3.376 6.161 6.161 0 0 0 -.531 3.51l6.126 48.719c2.476 22.754 12.75 42.16 29.71 56.12 12.937 10.649 29.72 18.062 47.534 21.054a214.206 214.206 0 0 1 14.8 47.831c1.772 9.563 3.07 18.666 3.946 27.561l1.247 13.638a74.2 74.2 0 0 0 51.953 62.282 31.192 31.192 0 0 0 -2.839 3.1 27.568 27.568 0 0 0 -5.843 17.047l-.271 52.11h-144.636c1.2-24.192 4.971-112.083-.346-169.2-1.892-20.318-20.316-66-21.1-67.936a5.686 5.686 0 0 0 -.243-.526 158.492 158.492 0 0 1 55.954-207.219 151.877 151.877 0 0 1 75.957-23q2.191-.078 4.4-.1a170.143 170.143 0 0 1 171.84 160.835c.137 2.227.233 22.889.264 36.235a6.036 6.036 0 0 0 .394 2.126l33.8 88.484a1.666 1.666 0 0 1 -.198 1.631zm-137.715-86.856a6 6 0 0 0 -8.476-.379l-41.13 37.61c1-6.249 2.169-11.992 3.49-17.154 4.736-18.5 16.647-32.755 31.862-38.118l51.682-18.218c-2.992 30.315-14.416 55.612-31.968 70.277-13.474 11.259-29.89 15.866-48.809 13.747l42.966-39.288a6 6 0 0 0 .383-8.477zm-38.357-31.061a206.521 206.521 0 0 1 -22.1 3.578c.777-1.43 1.575-2.859 2.417-4.286a156.019 156.019 0 0 1 35.148-40.885 6 6 0 0 0 -7.239-9.57 164.818 164.818 0 0 0 -36.1 40.84c.036-16.1 5.2-30.087 15.437-41.642 15.171-17.117 40.788-27.8 71.177-29.909l-19.714 51.133c-5.801 15.053-20.391 26.544-39.026 30.741zm2.636 11.707.178-.043c-10.483 8.793-18.364 21.518-22.2 36.5a245.685 245.685 0 0 0 -5.872 34.6 93.075 93.075 0 0 0 -5.586 7.944c-8.271-25.035-7.363-49.978 2.7-74.466a236.418 236.418 0 0 0 30.78-4.535zm-106.807-4.21 22.724 32.657a195.031 195.031 0 0 1 11.732 19.165c-27.368-7.194-54.5-27.112-58.615-64.875l-5.219-41.516c38.495 5.906 68.149 45.207 69.878 92.718-2.51-4.224-5.143-8.352-7.922-12.346l-22.725-32.657a6 6 0 1 0 -9.849 6.854z" fill="url(#linear-gradient)"/><path d="m139.881 67.021a145.948 145.948 0 0 0 -32.235 38.412 148.474 148.474 0 0 0 -14.038 32.509 6 6 0 1 0 11.508 3.4 136.436 136.436 0 0 1 12.9-29.879 133.994 133.994 0 0 1 29.591-35.263 6 6 0 1 0 -7.726-9.181z" fill="url(#linear-gradient-2)"/><path d="m166.8 49.188c-2.618 1.331-5.241 2.77-7.8 4.278a6 6 0 1 0 6.1 10.334c2.338-1.38 4.738-2.7 7.131-3.913a6 6 0 0 0 -5.435-10.7z" fill="url(#linear-gradient-3)"/></svg>