<svg id="Layer_1" height="512" viewBox="0 0 512 512" width="512" xmlns="http://www.w3.org/2000/svg" data-name="Layer 1"><path d="m225.37 16.112c-119.28 4.288-192.27 133.204-137.01 238.994 0 0 18.85 46.572 20.68 66.242 6.22 66.75 0 174.652 0 174.652h30s6.22-107.9 0-174.652c-1.83-19.67-20.68-66.242-20.68-66.242-53.973-103.326 14.409-228.689 128.761-238.471q-8.493-.726-17.2-.64c-1.521.02-3.041.057-4.551.117z" fill="#d4e1f4"/><path d="m347.125 175.779a6.01 6.01 0 0 0 -6.692-1.92l-47.546 16.76a57.635 57.635 0 0 0 17.353-23.631l23-59.66a6.166 6.166 0 0 0 -.675-5.671 6.079 6.079 0 0 0 -4.922-2.657h-.081c-37.662 1-70.086 13.105-88.962 34.4-14.159 15.975-20.366 36.587-17.957 59.539l.373 11.27c0 .1.017.216.026.318-12.666 30.689-12.471 62.789.737 93.942-.238.577-.477 1.156-.7 1.738a225.463 225.463 0 0 0 -13.134-38.707c0-.07.016-.138.018-.209l.415-13.846c1.817-60.526-37.9-111.573-88.543-113.793a6 6 0 0 0 -5.667 3.376 6.161 6.161 0 0 0 -.531 3.51l6.126 48.719c2.476 22.754 12.75 42.16 29.71 56.12 12.937 10.649 29.72 18.062 47.534 21.054a214.206 214.206 0 0 1 14.8 47.831c1.772 9.563 3.07 18.666 3.946 27.561l1.247 13.638a74.2 74.2 0 0 0 73.625 65.539h.255l-.041-12.048a62.388 62.388 0 0 1 -62.09-56.965l-.606-6.591a96.609 96.609 0 0 1 -.414-10.623c.191-10.7 1.524-21.914 3.689-27.966a82.883 82.883 0 0 1 12.869-23.34l7.25.452a90.144 90.144 0 0 0 12.013.82c18.113 0 34.52-5.791 47.98-17.038 21.8-18.216 35.238-50.183 36.883-87.727a6.243 6.243 0 0 0 -1.288-4.195zm-191.281 25.131 22.724 32.657a195.031 195.031 0 0 1 11.732 19.165c-27.368-7.194-54.5-27.112-58.615-64.875l-5.219-41.516c38.495 5.906 68.149 45.207 69.878 92.718-2.51-4.224-5.143-8.352-7.922-12.346l-22.725-32.657a6 6 0 1 0 -9.849 6.854zm91.736-59.462c15.171-17.117 40.788-27.8 71.177-29.909l-19.714 51.133c-5.8 15.053-20.393 26.544-39.028 30.741a206.521 206.521 0 0 1 -22.1 3.578c.777-1.43 1.575-2.859 2.417-4.286a156.019 156.019 0 0 1 35.148-40.885 6 6 0 0 0 -7.239-9.57 164.818 164.818 0 0 0 -36.1 40.84c.038-16.104 5.199-30.09 15.439-41.642zm-6.949 100.127a245.685 245.685 0 0 0 -5.872 34.6 93.075 93.075 0 0 0 -5.586 7.944c-8.271-25.035-7.363-49.978 2.7-74.466a236.418 236.418 0 0 0 30.778-4.535l.178-.043c-10.483 8.795-18.364 21.525-22.198 36.5zm63.205 16.917c-13.474 11.259-29.89 15.866-48.809 13.747l42.966-39.288a6 6 0 0 0 -8.1-8.856l-41.13 37.61c1-6.249 2.169-11.992 3.49-17.154 4.736-18.5 16.647-32.755 31.862-38.118l51.685-18.218c-2.988 30.315-14.412 55.612-31.964 70.277z" fill="#1ae5be"/><g fill="#0635c9"><path d="m447.5 305.419-33.412-87.458c-.017-6.44-.1-32.775-.28-35.8a182.147 182.147 0 0 0 -183.957-172.149q-2.356.025-4.7.11c-57.451 2.066-109.137 33.186-138.251 83.245a169.491 169.491 0 0 0 -4 164.258c1.5 3.75 18.508 46.447 20.167 64.284 6.1 65.521.047 172.672-.015 173.746a6.019 6.019 0 0 0 3.576 5.846 6.186 6.186 0 0 0 2.536.5h156.836a6 6 0 0 0 6-6v-58.689a11.533 11.533 0 0 1 1.266-5.364 19.651 19.651 0 0 1 17.486-10.948h.082c31.039 0 49.266.188 51.323.252a45.5 45.5 0 0 0 46.843-45.184v-52.068h45.364a14.027 14.027 0 0 0 11.727-6.044 13.7 13.7 0 0 0 1.409-12.537zm-11.413 5.911a1.756 1.756 0 0 1 -1.508.67h-51.936a5.642 5.642 0 0 0 -5.643 5.643v58.425a33.54 33.54 0 0 1 -34.381 33.19c-2.769-.086-29.7-.258-51.734-.258h-.134a31.46 31.46 0 0 0 -24.637 11.838 27.568 27.568 0 0 0 -5.843 17.047l-.271 52.115h-144.636c1.2-24.192 4.971-112.083-.346-169.2-1.892-20.318-20.316-66-21.1-67.936a5.686 5.686 0 0 0 -.243-.526 158.492 158.492 0 0 1 55.954-207.219 151.877 151.877 0 0 1 75.957-23q2.191-.078 4.4-.1a170.143 170.143 0 0 1 171.84 160.835c.137 2.227.233 22.889.264 36.235a6.036 6.036 0 0 0 .394 2.126l33.8 88.484a1.666 1.666 0 0 1 -.198 1.631z"/><path d="m139.881 67.021a145.948 145.948 0 0 0 -32.235 38.412 148.474 148.474 0 0 0 -14.038 32.509 6 6 0 1 0 11.508 3.4 136.436 136.436 0 0 1 12.9-29.879 133.994 133.994 0 0 1 29.591-35.263 6 6 0 1 0 -7.726-9.181z"/><path d="m166.8 49.188c-2.618 1.331-5.241 2.77-7.8 4.278a6 6 0 1 0 6.1 10.334c2.338-1.38 4.738-2.7 7.131-3.913a6 6 0 0 0 -5.435-10.7z"/></g></svg>